name C:\Users\tom_v\MusculoskeletalSpecialization\ResultsSprinting\Case_5\motion.mot
datacolumns 32
datarows 14
range 0.00000000 0.06324331
endheader 
time	pelvis_tilt	pelvis_list	pelvis_rotation	pelvis_tx	pelvis_ty	pelvis_tz	hip_flexion_r	hip_adduction_r	hip_rotation_r	knee_angle_r	ankle_angle_r	subtalar_angle_r	mtp_angle_r	hip_flexion_l	hip_adduction_l	hip_rotation_l	knee_angle_l	ankle_angle_l	subtalar_angle_l	mtp_angle_l	lumbar_extension	lumbar_bending	lumbar_rotation	arm_flex_r	arm_add_r	arm_rot_r	elbow_flex_r	arm_flex_l	arm_add_l	arm_rot_l	elbow_flex_l	
          0.00000000	         -2.14291696	         -8.70760542	         10.49502606	          0.00000000	          0.89814883	          0.00387286	         30.80283108	          5.25812620	         -6.23691855	          8.92188683	         12.75770170	         -4.31955779	         -0.87911848	          1.63568258	        -18.41925079	         -4.72674167	        -46.63406166	         -8.32826686	          1.24964453	          0.75340043	        -10.38877619	         14.76616764	        -25.21602965	        -68.47383655	         -6.37192008	         19.23339120	          8.90908350	        -41.92428089	        -42.58701228	        -13.17076545	         52.30043690	
          0.00486487	         -2.90017997	         -8.48475702	          8.08521600	          0.04249764	          0.89605115	          0.00565570	         29.83520902	          6.37355854	         -5.92995807	          9.68201982	         12.22913614	         -3.67285466	          1.84520934	          3.53766616	        -17.18977623	         -4.44271237	        -47.80374875	         -6.70206295	          1.88671861	          2.56246576	        -10.29908699	         14.25032870	        -22.11160910	        -69.85940747	         -8.43773189	         16.10799947	         17.55573794	        -47.21108400	        -42.02860752	        -13.05895799	         62.32044173	
          0.00972974	         -3.70437693	         -8.00948726	          5.84824511	          0.08457472	          0.89434113	          0.00672199	         28.90719554	          6.94898644	         -5.04817213	          9.98921040	         12.44846800	         -2.63981838	         -0.64961595	          5.63694021	        -15.68001742	         -3.92854765	        -48.78011548	         -4.49180267	          2.46458781	         -3.03292257	        -10.10181566	         13.65639283	        -18.83013902	        -69.56975998	         -8.30492122	          9.05341390	         22.56402759	        -47.57954113	        -40.59855336	        -11.70722238	         66.86089360	
          0.01459461	         -4.49409974	         -7.35195429	          3.85733306	          0.12633599	          0.89328563	          0.00707678	         27.96065336	          7.07938740	         -4.07492213	          9.94532953	         11.20598101	         -2.01965717	         -3.43665366	          7.90255633	        -14.00726860	         -3.20641119	        -49.48699663	         -4.42800554	          2.37440559	         -0.89278451	         -9.85897397	         13.05045854	        -15.52001686	        -66.17849859	         -7.03763777	          4.35817601	         21.29118609	        -43.12259191	        -37.89809303	         -9.29669497	         64.78658771	
          0.01945948	         -5.12896270	         -6.54344844	          2.12086304	          0.16775020	          0.89286946	          0.00684918	         26.93743527	          6.84280995	         -3.32602919	          9.47771795	          9.53873567	         -1.12828847	         -3.15705284	         10.14745065	        -12.25211376	         -2.36183556	        -49.99718860	         -3.56560812	          2.88490051	          1.79389458	         -9.72134305	         12.37811444	        -12.28344856	        -60.27656404	         -6.23357847	          6.47464147	         15.97365758	        -34.90784763	        -33.57121041	         -7.90897003	         55.74130022	
          0.02432435	         -5.53918539	         -5.60040191	          0.63676229	          0.20868679	          0.89271863	          0.00621218	         25.83218490	          6.28043250	         -2.82768896	          8.57698150	          8.75771996	          0.10726192	         -1.61034890	         12.34353148	        -10.46632588	         -1.49008409	        -50.43662599	         -1.83424920	          3.71157432	          3.42426733	         -9.74677102	         11.55513613	         -9.19814697	        -53.39531343	         -5.89917249	         13.07843803	         10.64539369	        -24.81261265	        -28.24023261	         -9.31937366	         41.94138497	
          0.02918922	         -5.79654094	         -4.58325905	         -0.59154570	          0.24904127	          0.89231196	          0.00529864	         24.71144369	          5.46332717	         -2.55328904	          7.39417277	          8.08428794	          0.99066083	          1.39281218	         14.64624587	         -8.73960662	         -0.66029383	        -50.94393741	         -0.16307249	          4.36407606	          4.65218013	         -9.84946813	         10.58619984	         -6.31947570	        -46.77041696	         -6.15828553	         18.19909824	          8.86338412	        -14.31616059	        -23.45523352	        -12.24490640	         26.48489083	
          0.03405409	         -6.05588015	         -3.53281304	         -1.58333629	          0.28887572	          0.89122239	          0.00420840	         23.70416732	          4.45176964	         -2.51424058	          6.04225662	          7.27587999	          1.66008140	          3.40830615	         17.22700610	         -7.13327462	          0.05791769	        -51.57911229	          1.28503539	          4.85994355	          5.46126432	         -9.86673127	          9.51290515	         -3.82319135	        -40.12631712	         -7.27568406	         19.35376456	          9.88019884	         -5.24376595	        -19.95526424	        -13.13103143	         13.20671163	
          0.03891896	         -6.39988989	         -2.47467545	         -2.39479624	          0.32846463	          0.88932187	          0.00300953	         22.82091975	          3.30529338	         -2.65904364	          4.63604367	          6.18639973	          2.42690058	          4.70416207	         20.08669487	         -5.68709578	          0.58210618	        -52.28178060	          2.66327793	          5.32952330	          5.93867866	         -9.69375629	          8.41140221	         -1.88830673	        -32.75247132	         -9.19806494	         19.21914152	         10.93687810	          1.13816386	        -17.11583897	        -11.45188923	          4.72852515	
          0.04378383	         -6.76193112	         -1.42769467	         -3.10534704	          0.36809077	          0.88674350	          0.00172045	         21.91664779	          2.07459036	         -2.82911824	          3.26516815	          4.92584540	          3.26132390	          5.50624259	         23.04574338	         -4.41811636	          0.85242859	        -52.95687724	          4.09357389	          5.79532873	          6.24689624	         -9.38176540	          7.36946916	         -0.51529337	        -24.18454797	        -11.47050654	         17.44825486	          9.81931397	          4.94861310	        -14.61090298	         -8.98601304	          0.84106089	
          0.04864870	         -7.07513938	         -0.38625380	         -3.78300672	          0.40791600	          0.88353837	          0.00034985	         20.89237842	          0.77802211	         -2.87661182	          1.96530959	          3.46579729	          3.81414329	          6.05934616	         25.98260027	         -3.31063010	          0.85431626	        -53.57690680	          5.39318628	          6.16630568	          6.53229590	         -8.98936302	          6.42981060	          0.37397139	        -14.22309687	        -13.75302342	         11.97510906	          5.73913795	          6.75544968	        -12.54766551	         -9.38957783	          0.35359569	
          0.05351357	         -7.32913392	          0.67654661	         -4.47232672	          0.44801182	          0.87960867	         -0.00106045	         19.74338552	         -0.59309239	         -2.82017361	          0.73805808	          1.45994136	          4.07456178	          6.55312254	         28.88512896	         -2.33735734	          0.59803091	        -54.17378219	          6.34464090	          6.45559913	          6.78073855	         -8.52675700	          5.56651988	          0.94369233	         -3.46827123	        -16.45311681	          3.56005506	          1.10560489	          7.45531378	        -11.03112326	        -12.91409097	          1.00842005	
          0.05837844	         -7.58434710	          1.79014994	         -5.20695600	          0.48845397	          0.87486290	         -0.00233816	         18.54974733	         -2.02134782	         -2.96364431	         -0.44872280	         -1.85372239	          4.67222566	          7.11357318	         31.81056330	         -1.50877217	          0.07960507	        -54.76166238	          6.93425595	          6.87344113	          6.93373635	         -7.95155937	          4.71020954	          1.48091017	          6.24825532	        -19.69808180	         -6.16332483	          0.51287174	          7.90399946	        -10.30963227	        -11.48525480	          0.15007327	
          0.06324331	         -7.91438611	          2.67643180	         -6.09441846	          0.52924345	          0.86976421	         -0.00306770	         17.37968800	         -3.05851925	         -2.11260089	         -1.77680451	         -4.23121115	          3.99953494	          6.91064880	         34.76842427	         -1.22894994	         -0.66799126	        -55.30136923	          7.37493848	          7.70040089	          6.95493997	         -7.31106581	          4.14327762	          2.22131846	         13.07048076	        -22.73361497	        -12.82095353	          7.55878304	          6.94584814	        -10.52206680	         -2.30806846	          0.78386351	
